<svg width="17" height="18" viewBox="0 0 17 18" fill="none" xmlns="http://www.w3.org/2000/svg">
<path fill-rule="evenodd" clip-rule="evenodd" d="M3.50684 9.99968C3.50684 9.63149 3.80532 9.33301 4.17351 9.33301H13.5069C13.8751 9.33301 14.1735 9.63149 14.1735 9.99968C14.1735 10.3679 13.8751 10.6663 13.5069 10.6663H4.17351C3.80532 10.6663 3.50684 10.3679 3.50684 9.99968Z" fill="#7559FF"/>
<path fill-rule="evenodd" clip-rule="evenodd" d="M8.36909 4.86225C8.62944 4.6019 9.05155 4.6019 9.3119 4.86225L13.9786 9.52892C14.2389 9.78927 14.2389 10.2114 13.9786 10.4717L9.3119 15.1384C9.05155 15.3987 8.62944 15.3987 8.36909 15.1384C8.10874 14.878 8.10874 14.4559 8.36909 14.1955L12.5644 10.0003L8.36909 5.80506C8.10874 5.54471 8.10874 5.1226 8.36909 4.86225Z" fill="#7559FF"/>
</svg>
