<svg width="17" height="19" viewBox="0 0 17 19" fill="none" xmlns="http://www.w3.org/2000/svg">
<path fill-rule="evenodd" clip-rule="evenodd" d="M3.4668 10.9465C3.4668 10.5783 3.76528 10.2798 4.13347 10.2798H13.4668C13.835 10.2798 14.1334 10.5783 14.1334 10.9465C14.1334 11.3146 13.835 11.6131 13.4668 11.6131H4.13347C3.76528 11.6131 3.4668 11.3146 3.4668 10.9465Z" fill="white"/>
<path fill-rule="evenodd" clip-rule="evenodd" d="M8.32905 5.80854C8.5894 5.54819 9.01151 5.54819 9.27186 5.80854L13.9386 10.4752C14.1989 10.7356 14.1989 11.1577 13.9386 11.418L9.27186 16.0847C9.01151 16.345 8.5894 16.345 8.32905 16.0847C8.0687 15.8243 8.0687 15.4022 8.32905 15.1419L12.5244 10.9466L8.32905 6.75135C8.0687 6.491 8.0687 6.06889 8.32905 5.80854Z" fill="white"/>
</svg>
