<svg width="17" height="19" viewBox="0 0 17 19" fill="none" xmlns="http://www.w3.org/2000/svg">
<path fill-rule="evenodd" clip-rule="evenodd" d="M3.07715 10.6667C3.07715 10.2985 3.37563 10 3.74382 10H13.0772C13.4454 10 13.7438 10.2985 13.7438 10.6667C13.7438 11.0349 13.4454 11.3333 13.0772 11.3333H3.74382C3.37563 11.3333 3.07715 11.0349 3.07715 10.6667Z" fill="white"/>
<path fill-rule="evenodd" clip-rule="evenodd" d="M7.9394 5.52851C8.19975 5.26816 8.62186 5.26816 8.88221 5.52851L13.5489 10.1952C13.8092 10.4555 13.8092 10.8776 13.5489 11.138L8.88221 15.8047C8.62186 16.065 8.19975 16.065 7.9394 15.8047C7.67905 15.5443 7.67905 15.1222 7.9394 14.8619L12.1347 10.6666L7.9394 6.47132C7.67905 6.21097 7.67905 5.78886 7.9394 5.52851Z" fill="white"/>
</svg>
