<svg width="17" height="19" viewBox="0 0 17 19" fill="none" xmlns="http://www.w3.org/2000/svg">
<path fill-rule="evenodd" clip-rule="evenodd" d="M2.91699 10.3266C2.91699 9.95839 3.21547 9.65991 3.58366 9.65991H12.917C13.2852 9.65991 13.5836 9.95839 13.5836 10.3266C13.5836 10.6948 13.2852 10.9932 12.917 10.9932H3.58366C3.21547 10.9932 2.91699 10.6948 2.91699 10.3266Z" fill="white"/>
<path fill-rule="evenodd" clip-rule="evenodd" d="M7.77925 5.18849C8.0396 4.92814 8.46171 4.92814 8.72206 5.18849L13.3887 9.85516C13.649 10.1155 13.649 10.5376 13.3887 10.798L8.72206 15.4646C8.46171 15.7249 8.0396 15.7249 7.77925 15.4646C7.5189 15.2042 7.5189 14.7821 7.77925 14.5218L11.9745 10.3266L7.77925 6.1313C7.5189 5.87095 7.5189 5.44884 7.77925 5.18849Z" fill="white"/>
</svg>
