<svg width="17" height="18" viewBox="0 0 17 18" fill="none" xmlns="http://www.w3.org/2000/svg">
<path fill-rule="evenodd" clip-rule="evenodd" d="M3.41724 10.0065C3.41724 9.63832 3.71572 9.33984 4.08391 9.33984H13.4173C13.7855 9.33984 14.0839 9.63832 14.0839 10.0065C14.0839 10.3747 13.7855 10.6732 13.4173 10.6732H4.08391C3.71572 10.6732 3.41724 10.3747 3.41724 10.0065Z" fill="white"/>
<path fill-rule="evenodd" clip-rule="evenodd" d="M8.279 4.8686C8.53935 4.60825 8.96146 4.60825 9.22181 4.8686L13.8885 9.53527C14.1488 9.79562 14.1488 10.2177 13.8885 10.4781L9.22181 15.1448C8.96146 15.4051 8.53935 15.4051 8.279 15.1448C8.01865 14.8844 8.01865 14.4623 8.279 14.202L12.4743 10.0067L8.279 5.81141C8.01865 5.55106 8.01865 5.12895 8.279 4.8686Z" fill="white"/>
</svg>
