<svg width="17" height="19" viewBox="0 0 17 19" fill="none" xmlns="http://www.w3.org/2000/svg">
<path fill-rule="evenodd" clip-rule="evenodd" d="M3.50684 10.0602C3.50684 9.69203 3.80532 9.39355 4.17351 9.39355H13.5069C13.8751 9.39355 14.1735 9.69203 14.1735 10.0602C14.1735 10.4284 13.8751 10.7269 13.5069 10.7269H4.17351C3.80532 10.7269 3.50684 10.4284 3.50684 10.0602Z" fill="white"/>
<path fill-rule="evenodd" clip-rule="evenodd" d="M8.3686 4.92182C8.62895 4.66148 9.05106 4.66148 9.31141 4.92182L13.9781 9.5885C14.2384 9.84885 14.2384 10.271 13.9781 10.5313L9.31141 15.198C9.05106 15.4583 8.62895 15.4583 8.3686 15.198C8.10825 14.9376 8.10825 14.5155 8.3686 14.2552L12.5639 10.0599L8.3686 5.86463C8.10825 5.60428 8.10825 5.18217 8.3686 4.92182Z" fill="white"/>
</svg>
