<svg width="45" height="21" viewBox="0 0 45 21" fill="none" xmlns="http://www.w3.org/2000/svg">
<path fill-rule="evenodd" clip-rule="evenodd" d="M3.82715 10.0259C3.82715 9.61167 4.16294 9.27588 4.57715 9.27588H16.2438C16.658 9.27588 16.9938 9.61167 16.9938 10.0259C16.9938 10.4401 16.658 10.7759 16.2438 10.7759H4.57715C4.16294 10.7759 3.82715 10.4401 3.82715 10.0259Z" fill="#0C062C" fill-opacity="0.2"/>
<path fill-rule="evenodd" clip-rule="evenodd" d="M4.04682 10.5565C3.75393 10.2636 3.75393 9.78877 4.04682 9.49587L9.88016 3.66254C10.173 3.36965 10.6479 3.36965 10.9408 3.66254C11.2337 3.95543 11.2337 4.43031 10.9408 4.7232L5.63781 10.0262L10.9408 15.3292C11.2337 15.6221 11.2337 16.0969 10.9408 16.3898C10.6479 16.6827 10.173 16.6827 9.88015 16.3898L4.04682 10.5565Z" fill="#0C062C" fill-opacity="0.2"/>
<path fill-rule="evenodd" clip-rule="evenodd" d="M40.9934 10.0259C40.9934 10.4401 40.6576 10.7759 40.2434 10.7759H28.5767C28.1625 10.7759 27.8267 10.4401 27.8267 10.0259C27.8267 9.61167 28.1625 9.27588 28.5767 9.27588H40.2434C40.6576 9.27588 40.9934 9.61167 40.9934 10.0259Z" fill="#0C062C"/>
<path fill-rule="evenodd" clip-rule="evenodd" d="M40.7738 9.49539C41.0667 9.78828 41.0667 10.2632 40.7738 10.5561L34.9404 16.3894C34.6476 16.6823 34.1727 16.6823 33.8798 16.3894C33.5869 16.0965 33.5869 15.6216 33.8798 15.3287L39.1828 10.0257L33.8798 4.72271C33.5869 4.42982 33.5869 3.95495 33.8798 3.66205C34.1727 3.36916 34.6476 3.36916 34.9404 3.66205L40.7738 9.49539Z" fill="#0C062C"/>
</svg>
