<svg width="29" height="72" viewBox="0 0 29 72" fill="none" xmlns="http://www.w3.org/2000/svg">
<path d="M5.33595 5.87206C7.65707 3.55098 10.867 2.11328 14.4105 2.11328C17.9539 2.11328 21.1639 3.55098 23.485 5.87207C25.8061 8.19319 27.2438 11.4031 27.2438 14.9466C27.2438 18.4901 25.8061 21.7 23.485 24.0211C21.1639 26.3422 17.9539 27.7799 14.4105 27.7799C10.867 27.7799 7.65707 26.3422 5.33594 24.0211C3.01485 21.7 1.57715 18.4901 1.57715 14.9466C1.57715 11.4031 3.01486 8.19319 5.33595 5.87206Z" fill="#00BF8F"/>
<path d="M12.4191 19.2716C12.8747 19.7272 13.6134 19.7272 14.069 19.2716L21.1868 12.1538C21.5773 11.7632 21.5773 11.1301 21.1868 10.7395L20.9511 10.5038C20.5606 10.1133 19.9274 10.1133 19.5369 10.5038L13.9511 16.0896C13.5606 16.4802 12.9274 16.4802 12.5369 16.0896L10.4511 14.0039C10.0606 13.6133 9.42742 13.6133 9.03689 14.0039L8.80119 14.2396C8.41067 14.6301 8.41067 15.2632 8.80119 15.6538L12.4191 19.2716Z" fill="white"/>
</svg>
