<svg width="49" height="49" viewBox="0 0 49 49" fill="none" xmlns="http://www.w3.org/2000/svg">
<path d="M38.4104 22.9463H10.4104C8.20126 22.9463 6.4104 24.7372 6.4104 26.9463V40.9463C6.4104 43.1554 8.20126 44.9463 10.4104 44.9463H38.4104C40.6195 44.9463 42.4104 43.1554 42.4104 40.9463V26.9463C42.4104 24.7372 40.6195 22.9463 38.4104 22.9463Z" stroke="#00BF8F" stroke-width="4" stroke-linecap="round" stroke-linejoin="round"/>
<path d="M14.4104 22.9463V14.9463C14.4104 12.2941 15.464 9.75059 17.3393 7.87522C19.2147 5.99986 21.7582 4.94629 24.4104 4.94629C27.0626 4.94629 29.6061 5.99986 31.4815 7.87522C33.3568 9.75059 34.4104 12.2941 34.4104 14.9463V22.9463" stroke="#00BF8F" stroke-width="4" stroke-linecap="round" stroke-linejoin="round"/>
</svg>
